Coordinates
version=1
nRows=24
nColumns=26
inDegrees=yes

Units are S.I. units (second, meters, Newtons, ...)
If the header above contains a line with 'inDegrees', this indicates whether rotational values are in degrees (yes) or radians (no).

endheader
time	pelvis_tilt	pelvis_list	pelvis_rotation	pelvis_tx	pelvis_ty	pelvis_tz	hip_flexion_r	hip_adduction_r	hip_rotation_r	knee_angle_r	knee_angle_r_beta	hip_flexion_l	hip_adduction_l	hip_rotation_l	knee_angle_l	knee_angle_l_beta	lumbar_extension	lumbar_bending	lumbar_rotation	ankle_angle_r	subtalar_angle_r	mtp_angle_r	ankle_angle_l	subtalar_angle_l	mtp_angle_l
      0.37000000	     -1.58195122	     -4.16966871	     -5.65821140	     -0.86109612	      0.85102326	      0.23193071	     -0.68061319	      4.71110475	     -8.75406114	     16.49844083	      0.28795211	     35.48227746	    -11.05747439	     -6.77155284	     55.10692013	      0.96179720	    -18.47381130	      1.88500557	     11.50625268	     13.91785218	     -8.47031458	      0.00000000	     -4.02174807	     -9.92633182	      0.00000000
      0.38000000	     -1.89859141	     -4.75137315	     -6.30471886	     -0.84769643	      0.84952609	      0.23157382	     -1.54121798	      5.13932224	     -8.79615221	     16.31102732	      0.28468113	     36.39894080	    -11.85041296	     -6.97794007	     51.62614979	      0.90104629	    -18.33154915	      2.58773614	     11.77344741	     14.11267106	     -8.23312739	      0.00000000	     -4.20130578	     -9.61715767	      0.00000000
      0.39000000	     -1.93695655	     -5.09434686	     -7.46448437	     -0.83388360	      0.84862511	      0.23177185	     -3.10551440	      5.29504535	     -7.75348188	     15.29786887	      0.26699818	     36.51080479	    -12.76673543	     -8.12377562	     47.56027484	      0.83008339	    -18.42080162	      2.73255475	     13.89542104	     14.18790324	     -6.95760192	      0.00000000	     -5.51219324	    -10.02747119	      0.00000000
      0.40000000	     -1.91708451	     -5.50383826	     -8.47526722	     -0.82019373	      0.84746080	      0.23165469	     -4.49057799	      5.41042771	     -7.08628391	     14.80787812	      0.25844623	     36.44110907	    -13.60773805	     -9.15171915	     43.29472712	      0.75563554	    -18.69613997	      3.03428818	     15.45629934	     14.20955695	     -6.32512842	      0.00000000	     -6.71311942	    -10.14628060	      0.00000000
      0.41000000	     -2.11030906	     -5.95219102	     -9.46100539	     -0.80633508	      0.84585481	      0.23155389	     -5.67901508	      5.55249522	     -6.46464406	     14.29837960	      0.24955380	     36.48039768	    -14.50095426	    -10.20659146	     38.92498399	      0.67936913	    -18.70704516	      3.39422622	     16.65128402	     14.25625230	     -5.53766620	      0.00000000	     -8.00230885	     -9.78385799	      0.00000000
      0.42000000	     -2.26286648	     -6.35179022	    -10.33711959	     -0.79228558	      0.84409578	      0.23109620	     -6.86045738	      5.57386888	     -5.85430510	     13.90237950	      0.24264230	     36.36265506	    -15.25423679	    -11.40908928	     34.49185040	      0.60199635	    -18.76244320	      3.78857813	     17.81329122	     14.29338576	     -4.76844775	      0.00000000	     -9.26398648	     -9.02813353	      0.00000000
      0.43000000	     -2.42385119	     -6.70700751	    -11.20241656	     -0.77803733	      0.84221138	      0.23052770	     -7.99991405	      5.49304403	     -5.25737199	     13.57761043	      0.23697401	     36.15029925	    -15.91378745	    -12.62125597	     30.11623027	      0.52562738	    -18.82369490	      4.14766584	     18.89032875	     14.27580176	     -3.97089063	      0.00000000	    -10.44528736	     -7.77790905	      0.00000000
      0.44000000	     -2.56933896	     -7.03372065	    -11.99887764	     -0.76349219	      0.84020406	      0.22990361	     -9.12759922	      5.34446532	     -4.73127153	     13.32858914	      0.23262777	     35.88227773	    -16.47452048	    -13.69600472	     25.96872081	      0.45323968	    -18.82240236	      4.41301550	     19.83329325	     14.21148371	     -3.18942037	      0.00000000	    -11.56639420	     -6.01992217	      0.00000000
      0.45000000	     -2.68713584	     -7.28590190	    -12.72112455	     -0.74865293	      0.83809448	      0.22908988	    -10.23089617	      5.07109850	     -4.32043510	     13.16617606	      0.22979312	     35.59214205	    -16.89833564	    -14.68354020	     22.22562673	      0.38791036	    -18.85501496	      4.63656795	     20.68081174	     14.12949411	     -2.48783299	      0.00000000	    -12.50408415	     -4.06666153	      0.00000000
      0.46000000	     -2.70778319	     -7.51341571	    -13.33757380	     -0.73347951	      0.83604240	      0.22810782	    -11.37628619	      4.71999825	     -3.90670953	     13.13312657	      0.22921630	     35.22548182	    -17.21769646	    -15.47220082	     19.00460825	      0.33169299	    -18.91533772	      4.82747894	     21.38356852	     13.86698369	     -1.69867493	      0.00000000	    -13.36858400	     -1.90607619	      0.00000000
      0.47000000	     -3.01402803	     -7.77808780	    -13.78062470	     -0.71805926	      0.83355074	      0.22691410	    -12.14095119	      4.49560963	     -3.67228978	     13.26804050	      0.23157099	     35.35737475	    -17.51444323	    -15.59538389	     16.58157111	      0.28940301	    -18.64522007	      5.21456468	     21.61341334	     13.42880193	     -1.14949917	      0.00000000	    -14.23052860	     -0.13629809	      0.00000000
      0.48000000	     -2.74372508	     -7.66361527	    -14.24889519	     -0.70207211	      0.83177970	      0.22580790	    -13.42564019	      3.67367393	     -3.57954772	     13.41799409	      0.23418818	     34.76153577	    -17.45672620	    -16.45617209	     14.75126519	      0.25745815	    -18.84492292	      4.87626784	     22.39499212	     13.05446271	     -0.49020186	      0.00000000	    -14.87881670	      1.47812004	      0.00000000
      0.49000000	     -2.88746437	     -7.71540075	    -14.50913841	     -0.68586739	      0.82948329	      0.22446774	    -14.21663487	      3.18275878	     -3.60659882	     13.73565025	      0.23973232	     34.88719194	    -17.51956407	    -16.44204995	     13.97562353	      0.24392065	    -18.58096221	      4.97358373	     22.47697763	     12.29386603	     -0.06798993	      0.00000000	    -15.44982626	      2.44966370	      0.00000000
      0.50000000	     -2.55064875	     -7.41202265	    -14.67000377	     -0.66906805	      0.82775862	      0.22303361	    -15.38778174	      2.15607147	     -4.07197141	     14.14684961	      0.24690910	     34.48356766	    -17.19617356	    -17.06617984	     13.93586432	      0.24322672	    -18.66661983	      4.47633920	     22.75441928	     11.66008120	      0.65987192	      0.00000000	    -15.65536193	      3.39127436	      0.00000000
      0.51000000	     -2.49122818	     -7.17402805	    -14.63686034	     -0.65190733	      0.82565373	      0.22136751	    -16.21501559	      1.34040889	     -4.63848546	     14.68406590	      0.25628530	     34.55959849	    -16.85923847	    -17.07082096	     14.77007011	      0.25778635	    -18.36362241	      4.21655200	     22.78493781	     10.59228911	      0.93159999	      0.00000000	    -15.68805329	      3.48773889	      0.00000000
      0.52000000	     -2.36752369	     -6.80515488	    -14.55054484	     -0.63439439	      0.82361048	      0.21967754	    -17.01466636	      0.38543950	     -5.19327747	     15.33004852	      0.26755982	     34.57695406	    -16.35816098	    -16.90087035	     16.23330660	      0.28332465	    -18.07595743	      3.73952505	     22.76686256	      9.32350647	      1.22359939	      0.00000000	    -15.34198934	      3.24484141	      0.00000000
      0.53000000	     -2.19413469	     -6.33744852	    -14.26687806	     -0.61635627	      0.82152510	      0.21780492	    -17.77155253	     -0.66010484	     -6.27856157	     16.13796049	      0.28166055	     34.58112460	    -15.64970782	    -16.73316535	     18.22130866	      0.31802183	    -17.69412947	      3.18977029	     22.59910489	      7.88474959	      1.49575461	      0.00000000	    -14.27705852	      2.79737192	      0.00000000
      0.54000000	     -2.01419323	     -5.77347816	    -13.93102644	     -0.59798142	      0.81939126	      0.21579480	    -18.42580679	     -1.79785649	     -7.32822913	     17.11422860	      0.29869964	     34.52167306	    -14.75344118	    -16.39444790	     20.44638058	      0.35685666	    -17.23282264	      2.55823284	     22.43554991	      6.12754367	      1.65990753	      0.00000000	    -12.64624619	      2.00859274	      0.00000000
      0.55000000	     -1.91002198	     -5.14496408	    -13.17878017	     -0.57919552	      0.81691391	      0.21348162	    -18.84648862	     -2.97070722	     -9.47186868	     18.51793291	      0.32319890	     34.67043385	    -13.64361907	    -16.00220170	     23.04471209	      0.40220610	    -16.60525911	      1.92810222	     21.40042206	      4.52101774	      2.43444089	      0.00000000	     -9.88155115	      1.93238562	      0.00000000
      0.56000000	     -1.75384531	     -4.36449243	    -12.49513655	     -0.56035630	      0.81465791	      0.21110978	    -19.16990718	     -4.26206091	    -10.99146321	     20.04855491	      0.34991329	     34.54852703	    -12.25800123	    -15.46239207	     25.33889537	      0.44224715	    -16.00768496	      1.05979682	     21.07854614	      2.17286986	      2.09968528	      0.00000000	     -7.08196172	      0.85719366	      0.00000000
      0.57000000	     -1.66915796	     -3.49902975	    -11.64465576	     -0.54145786	      0.81233639	      0.20855312	    -19.24138895	     -5.59839579	    -12.63538634	     21.90709187	      0.38235088	     34.45321886	    -10.67861905	    -14.86908923	     27.52851387	      0.48046321	    -15.31544677	      0.12587353	     20.35425550	     -0.52744220	      1.51038598	      0.00000000	     -3.83497026	     -0.23034241	      0.00000000
      0.58000000	     -1.55449296	     -2.52635140	    -10.66517841	     -0.52270331	      0.81021126	      0.20583626	    -19.13683348	     -7.01306695	    -14.15945679	     24.10628895	      0.42073411	     34.23871396	     -8.88395981	    -14.27209383	     29.47454035	      0.51442777	    -14.69524883	     -0.96153683	     19.77721423	     -3.69296395	      0.32369404	      0.00000000	     -0.61115145	     -1.46233324	      0.00000000
      0.59000000	     -1.45808371	     -1.44555187	     -9.62449114	     -0.50420148	      0.80827701	      0.20298890	    -18.78533821	     -8.54681159	    -15.54393107	     26.66500676	      0.46539216	     33.95918329	     -6.91957658	    -13.64650746	     31.19635410	      0.54447909	    -14.12598126	     -2.13967657	     19.06200527	     -7.27563610	     -1.32414100	      0.00000000	      2.48901223	     -2.70137527	      0.00000000
      0.60000000	     -1.41746383	     -0.21087558	     -8.44036491	     -0.48601768	      0.80654082	      0.19993834	    -18.15225621	    -10.17953361	    -16.67153803	     29.58171512	      0.51629833	     33.66158149	     -4.72383562	    -12.99399038	     32.65569946	      0.56994948	    -13.59234575	     -3.51421086	     18.13056836	    -11.32220986	     -3.55540692	      0.00000000	      5.19612831	     -3.85795614	      0.00000000
